<svg xmlns="http://www.w3.org/2000/svg" xmlns:xlink="http://www.w3.org/1999/xlink" width="350" zoomAndPan="magnify" viewBox="0 0 262.5 56.249996" height="75" preserveAspectRatio="xMidYMid meet" version="1.0"><defs><clipPath id="99a8b2c0e6"><path d="M 1.480469 0 L 260.527344 0 L 260.527344 55.511719 L 1.480469 55.511719 Z M 1.480469 0 " clip-rule="nonzero"/></clipPath><clipPath id="cbf1e1e3ea"><path d="M 21.910156 7.511719 L 29.078125 7.511719 L 29.078125 14.347656 L 21.910156 14.347656 Z M 21.910156 7.511719 " clip-rule="nonzero"/></clipPath><clipPath id="b994b4da1b"><path d="M 33.488281 7.511719 L 40.65625 7.511719 L 40.65625 14.347656 L 33.488281 14.347656 Z M 33.488281 7.511719 " clip-rule="nonzero"/></clipPath><clipPath id="63e8143b9e"><path d="M 44.996094 7.511719 L 52.164062 7.511719 L 52.164062 14.347656 L 44.996094 14.347656 Z M 44.996094 7.511719 " clip-rule="nonzero"/></clipPath><clipPath id="7776cbf9e3"><path d="M 26.941406 18.027344 L 34.109375 18.027344 L 34.109375 24.863281 L 26.941406 24.863281 Z M 26.941406 18.027344 " clip-rule="nonzero"/></clipPath><clipPath id="b3dd7b0c73"><path d="M 26.941406 24.296875 L 34.195312 24.296875 L 34.195312 37.933594 L 26.941406 37.933594 Z M 26.941406 24.296875 " clip-rule="nonzero"/></clipPath><clipPath id="51fb40829f"><path d="M 34.109375 31.125 L 26.941406 24.308594 L 26.941406 37.933594 L 34.109375 31.125 " clip-rule="nonzero"/></clipPath><clipPath id="7426ca785e"><path d="M 26.941406 24.3125 L 34.109375 24.3125 L 34.109375 31.148438 L 26.941406 31.148438 Z M 26.941406 24.3125 " clip-rule="nonzero"/></clipPath><clipPath id="1813717a5f"><path d="M 39.796875 18.027344 L 47.058594 18.027344 L 47.058594 24.949219 L 39.796875 24.949219 Z M 39.796875 18.027344 " clip-rule="nonzero"/></clipPath><clipPath id="9b2906f0d4"><path d="M 39.707031 24.390625 L 47.054688 24.390625 L 47.054688 38.332031 L 39.707031 38.332031 Z M 39.707031 24.390625 " clip-rule="nonzero"/></clipPath><clipPath id="5516fd7554"><path d="M 39.796875 31.289062 L 47.054688 38.191406 L 47.054688 24.390625 L 39.796875 31.289062 " clip-rule="nonzero"/></clipPath><clipPath id="44c01ad6dd"><path d="M 39.796875 24.390625 L 47.058594 24.390625 L 47.058594 31.3125 L 39.796875 31.3125 Z M 39.796875 24.390625 " clip-rule="nonzero"/></clipPath></defs><g clip-path="url(#99a8b2c0e6)"><path fill="#ffffff" d="M 1.480469 0 L 261.019531 0 L 261.019531 63.03125 L 1.480469 63.03125 Z M 1.480469 0 " fill-opacity="1" fill-rule="nonzero"/><path fill="#ffffff" d="M 1.480469 0 L 261.019531 0 L 261.019531 55.617188 L 1.480469 55.617188 Z M 1.480469 0 " fill-opacity="1" fill-rule="nonzero"/><path fill="#ffffff" d="M 1.480469 0 L 261.019531 0 L 261.019531 55.617188 L 1.480469 55.617188 Z M 1.480469 0 " fill-opacity="1" fill-rule="nonzero"/></g><g clip-path="url(#cbf1e1e3ea)"><path fill="#b9975b" d="M 21.910156 7.511719 L 29.078125 7.511719 L 29.078125 14.390625 L 21.910156 14.390625 Z M 21.910156 7.511719 " fill-opacity="1" fill-rule="nonzero"/></g><g clip-path="url(#b994b4da1b)"><path fill="#b9975b" d="M 33.488281 7.511719 L 40.65625 7.511719 L 40.65625 14.390625 L 33.488281 14.390625 Z M 33.488281 7.511719 " fill-opacity="1" fill-rule="nonzero"/></g><g clip-path="url(#63e8143b9e)"><path fill="#b9975b" d="M 44.996094 7.511719 L 52.164062 7.511719 L 52.164062 14.390625 L 44.996094 14.390625 Z M 44.996094 7.511719 " fill-opacity="1" fill-rule="nonzero"/></g><g clip-path="url(#7776cbf9e3)"><path fill="#b9975b" d="M 26.941406 18.027344 L 34.113281 18.027344 L 34.113281 24.910156 L 26.941406 24.910156 Z M 26.941406 18.027344 " fill-opacity="1" fill-rule="nonzero"/></g><g clip-path="url(#b3dd7b0c73)"><g clip-path="url(#51fb40829f)"><path fill="#b9975b" d="M 26.941406 24.324219 L 34.042969 24.324219 L 34.042969 37.933594 L 26.941406 37.933594 Z M 26.941406 24.324219 " fill-opacity="1" fill-rule="nonzero"/></g></g><g clip-path="url(#7426ca785e)"><path fill="#b9975b" d="M 26.941406 24.3125 L 34.113281 24.3125 L 34.113281 31.191406 L 26.941406 31.191406 Z M 26.941406 24.3125 " fill-opacity="1" fill-rule="nonzero"/></g><g clip-path="url(#1813717a5f)"><path fill="#b9975b" d="M 39.796875 18.027344 L 47.058594 18.027344 L 47.058594 24.996094 L 39.796875 24.996094 Z M 39.796875 18.027344 " fill-opacity="1" fill-rule="nonzero"/></g><g clip-path="url(#9b2906f0d4)"><g clip-path="url(#5516fd7554)"><path fill="#b9975b" d="M 39.863281 24.390625 L 47.054688 24.390625 L 47.054688 38.175781 L 39.863281 38.175781 Z M 39.863281 24.390625 " fill-opacity="1" fill-rule="nonzero"/></g></g><g clip-path="url(#44c01ad6dd)"><path fill="#b9975b" d="M 39.796875 24.390625 L 47.058594 24.390625 L 47.058594 31.359375 L 39.796875 31.359375 Z M 39.796875 24.390625 " fill-opacity="1" fill-rule="nonzero"/></g><path fill="#b9975b" d="M 56.429688 37.285156 L 58.535156 37.394531 C 59.214844 37.394531 59.554688 37 59.554688 36.214844 L 59.554688 9.269531 C 59.554688 8.949219 59.453125 8.667969 59.257812 8.4375 C 59.058594 8.210938 58.757812 8.109375 58.363281 8.140625 L 56.429688 8.25 L 56.429688 6.628906 L 68.558594 6.628906 C 72.554688 6.628906 75.453125 7.304688 77.246094 8.65625 C 79.042969 10 79.945312 12.1875 79.945312 15.214844 C 79.945312 17.046875 79.34375 18.640625 78.140625 19.992188 C 76.933594 21.34375 75.34375 22.285156 73.363281 22.820312 C 74.472656 22.820312 75.597656 23.199219 76.726562 23.953125 C 77.867188 24.707031 78.816406 25.808594 79.570312 27.253906 C 80.324219 28.691406 80.703125 30.363281 80.703125 32.269531 C 80.703125 33.351562 80.835938 34.449219 81.109375 35.570312 C 81.378906 36.683594 81.769531 37.277344 82.273438 37.347656 C 82.480469 37.421875 82.730469 37.457031 83.027344 37.457031 C 83.453125 37.457031 83.796875 37.386719 84.046875 37.238281 L 84.046875 38.855469 L 76.710938 38.855469 C 76.277344 37.957031 76.027344 36.765625 75.957031 35.289062 C 75.882812 34.355469 75.847656 33.675781 75.847656 33.242188 L 75.847656 31.46875 C 75.847656 28.761719 74.972656 26.746094 73.222656 25.414062 C 71.484375 24.085938 69.351562 23.417969 66.828125 23.417969 L 64.566406 23.417969 L 64.566406 36.214844 C 64.566406 37 64.929688 37.394531 65.652344 37.394531 L 68.289062 37.285156 L 68.289062 38.855469 L 56.429688 38.855469 Z M 69.59375 21.957031 C 71.25 21.957031 72.539062 21.367188 73.476562 20.179688 C 74.40625 18.996094 74.875 17.34375 74.875 15.214844 C 74.875 12.730469 74.359375 10.933594 73.332031 9.820312 C 72.304688 8.699219 70.714844 8.140625 68.558594 8.140625 L 65.210938 8.140625 C 64.78125 8.140625 64.566406 8.320312 64.566406 8.671875 L 64.566406 21.957031 Z M 69.59375 21.957031 " fill-opacity="1" fill-rule="nonzero"/><path fill="#b9975b" d="M 109.351562 37.457031 L 109.351562 38.855469 L 101.683594 38.855469 C 101.714844 38.605469 101.753906 38.273438 101.8125 37.867188 C 101.875 37.449219 101.90625 37.109375 101.90625 36.859375 L 102.015625 34.753906 C 101.21875 36.304688 100.195312 37.421875 98.953125 38.101562 C 97.714844 38.785156 96.234375 39.121094 94.503906 39.121094 C 92.242188 39.121094 90.523438 38.613281 89.351562 37.582031 C 88.191406 36.554688 87.609375 35.035156 87.609375 33.023438 C 87.609375 30.257812 88.765625 28.222656 91.082031 26.910156 C 93.40625 25.589844 97.050781 24.929688 102.015625 24.929688 L 102.015625 21.800781 C 102.015625 20.101562 101.613281 18.898438 100.820312 18.183594 C 100.035156 17.460938 98.753906 17.097656 96.988281 17.097656 C 94.253906 17.097656 92.886719 17.855469 92.886719 19.363281 C 92.886719 19.65625 92.964844 19.992188 93.125 20.371094 C 93.289062 20.746094 93.375 21.101562 93.375 21.421875 C 93.375 22.03125 93.175781 22.492188 92.777344 22.804688 C 92.390625 23.113281 91.886719 23.261719 91.269531 23.261719 C 90.515625 23.261719 89.925781 23.027344 89.511719 22.554688 C 89.101562 22.082031 88.898438 21.46875 88.898438 20.714844 C 88.898438 19.207031 89.6875 17.988281 91.269531 17.050781 C 92.847656 16.109375 94.96875 15.636719 97.632812 15.636719 C 103.640625 15.636719 106.648438 18.179688 106.648438 23.261719 L 106.648438 36.527344 C 106.648438 37.222656 106.886719 37.566406 107.355469 37.566406 Z M 96.125 37.1875 C 97.703125 37.1875 99.050781 36.535156 100.160156 35.222656 C 101.28125 33.902344 101.898438 32.203125 102.015625 30.117188 L 102.015625 26.390625 C 98.628906 26.390625 96.203125 26.890625 94.726562 27.882812 C 93.25 28.871094 92.511719 30.441406 92.511719 32.597656 C 92.511719 34.109375 92.824219 35.25 93.453125 36.027344 C 94.082031 36.804688 94.96875 37.1875 96.125 37.1875 Z M 96.125 37.1875 " fill-opacity="1" fill-rule="nonzero"/><path fill="#b9975b" d="M 153.636719 37.457031 L 153.636719 38.855469 L 143.109375 38.855469 L 143.109375 37.457031 L 145.59375 37.566406 C 146.0625 37.453125 146.300781 37.105469 146.300781 36.527344 L 146.300781 24.285156 C 146.300781 22.554688 146.210938 21.226562 146.046875 20.289062 C 145.890625 19.347656 145.5625 18.625 145.058594 18.121094 C 144.554688 17.617188 143.761719 17.367188 142.6875 17.367188 C 140.777344 17.367188 139.1875 18.230469 137.910156 19.960938 C 136.628906 21.691406 135.9375 23.976562 135.835938 26.8125 L 135.835938 36.527344 C 135.835938 37.222656 136.0625 37.566406 136.527344 37.566406 L 139.074219 37.457031 L 139.074219 38.855469 L 128.011719 38.855469 L 128.011719 37.457031 L 130.496094 37.566406 C 130.953125 37.453125 131.1875 37.105469 131.1875 36.527344 L 131.1875 24.171875 C 131.1875 22.296875 131.085938 20.894531 130.886719 19.960938 C 130.699219 19.027344 130.34375 18.371094 129.820312 17.996094 C 129.292969 17.617188 128.476562 17.429688 127.371094 17.429688 C 125.523438 17.429688 124.011719 18.257812 122.828125 19.914062 C 121.644531 21.570312 120.964844 23.730469 120.785156 26.390625 L 120.722656 36.527344 C 120.722656 37.222656 120.960938 37.566406 121.429688 37.566406 L 123.914062 37.457031 L 123.914062 38.855469 L 113.386719 38.855469 L 113.386719 37.457031 L 115.382812 37.566406 C 115.855469 37.453125 116.089844 37.105469 116.089844 36.527344 L 116.089844 18.5625 C 116.089844 18.269531 116.027344 18.019531 115.902344 17.808594 C 115.777344 17.585938 115.601562 17.476562 115.382812 17.476562 L 113.386719 17.585938 L 113.386719 16.1875 L 121.054688 16.1875 C 120.875 16.722656 120.785156 17.332031 120.785156 18.011719 L 120.785156 20.980469 C 121.320312 19.402344 122.265625 18.117188 123.628906 17.132812 C 125 16.136719 126.664062 15.636719 128.609375 15.636719 C 130.652344 15.636719 132.257812 16.074219 133.433594 16.941406 C 134.601562 17.804688 135.347656 19.402344 135.664062 21.738281 C 136.28125 19.769531 137.296875 18.257812 138.710938 17.210938 C 140.132812 16.164062 141.796875 15.636719 143.707031 15.636719 C 146.257812 15.636719 148.105469 16.242188 149.238281 17.445312 C 150.367188 18.652344 150.933594 20.605469 150.933594 23.308594 L 150.933594 36.527344 C 150.933594 37.222656 151.167969 37.566406 151.640625 37.566406 Z M 120.722656 27.898438 L 120.722656 28.324219 Z M 120.722656 27.898438 " fill-opacity="1" fill-rule="nonzero"/><path fill="#b9975b" d="M 171.28125 15.636719 C 174.367188 15.636719 176.683594 16.65625 178.222656 18.6875 C 179.769531 20.722656 180.546875 23.683594 180.546875 27.570312 C 180.546875 31.53125 179.707031 34.492188 178.035156 36.449219 C 176.371094 38.410156 173.792969 39.390625 170.304688 39.390625 C 168.828125 39.390625 167.558594 39.144531 166.488281 38.667969 C 165.429688 38.1875 164.652344 37.472656 164.148438 36.527344 L 164.148438 49.386719 C 164.148438 50.097656 164.382812 50.457031 164.855469 50.457031 L 168.199219 50.347656 L 168.199219 51.761719 L 157.078125 51.761719 L 157.078125 50.347656 L 158.808594 50.457031 C 159.277344 50.425781 159.515625 50.066406 159.515625 49.386719 L 159.515625 18.5625 C 159.515625 17.839844 159.277344 17.476562 158.808594 17.476562 L 156.875 17.585938 L 156.875 16.1875 L 164.367188 16.1875 C 164.21875 17.089844 164.148438 18.007812 164.148438 18.9375 L 164.148438 20.496094 C 164.652344 18.953125 165.515625 17.757812 166.738281 16.910156 C 167.964844 16.0625 169.476562 15.636719 171.28125 15.636719 Z M 170.683594 17.097656 C 168.660156 17.097656 167.085938 17.976562 165.953125 19.726562 C 164.824219 21.464844 164.257812 23.777344 164.257812 26.65625 L 164.257812 28.921875 C 164.257812 32.058594 164.769531 34.34375 165.796875 35.789062 C 166.824219 37.230469 168.328125 37.945312 170.304688 37.945312 C 171.707031 37.945312 172.789062 37.628906 173.542969 37 C 174.296875 36.363281 174.835938 35.3125 175.160156 33.839844 C 175.480469 32.363281 175.648438 30.273438 175.648438 27.570312 C 175.648438 24.875 175.511719 22.789062 175.238281 21.3125 C 174.964844 19.835938 174.46875 18.765625 173.746094 18.105469 C 173.03125 17.4375 172.011719 17.097656 170.683594 17.097656 Z M 170.683594 17.097656 " fill-opacity="1" fill-rule="nonzero"/><path fill="#b9975b" d="M 206.722656 37.457031 L 206.722656 38.855469 L 199.054688 38.855469 C 199.085938 38.605469 199.125 38.273438 199.179688 37.867188 C 199.242188 37.449219 199.273438 37.109375 199.273438 36.859375 L 199.386719 34.753906 C 198.589844 36.304688 197.566406 37.421875 196.320312 38.101562 C 195.085938 38.785156 193.605469 39.121094 191.875 39.121094 C 189.613281 39.121094 187.894531 38.613281 186.722656 37.582031 C 185.5625 36.554688 184.980469 35.035156 184.980469 33.023438 C 184.980469 30.257812 186.132812 28.222656 188.453125 26.910156 C 190.777344 25.589844 194.421875 24.929688 199.386719 24.929688 L 199.386719 21.800781 C 199.386719 20.101562 198.984375 18.898438 198.191406 18.183594 C 197.40625 17.460938 196.125 17.097656 194.359375 17.097656 C 191.625 17.097656 190.257812 17.855469 190.257812 19.363281 C 190.257812 19.65625 190.335938 19.992188 190.492188 20.371094 C 190.660156 20.746094 190.746094 21.101562 190.746094 21.421875 C 190.746094 22.03125 190.542969 22.492188 190.148438 22.804688 C 189.757812 23.113281 189.257812 23.261719 188.640625 23.261719 C 187.886719 23.261719 187.296875 23.027344 186.878906 22.554688 C 186.472656 22.082031 186.269531 21.46875 186.269531 20.714844 C 186.269531 19.207031 187.058594 17.988281 188.640625 17.050781 C 190.21875 16.109375 192.339844 15.636719 195.003906 15.636719 C 201.011719 15.636719 204.019531 18.179688 204.019531 23.261719 L 204.019531 36.527344 C 204.019531 37.222656 204.253906 37.566406 204.726562 37.566406 Z M 193.492188 37.1875 C 195.074219 37.1875 196.421875 36.535156 197.53125 35.222656 C 198.652344 33.902344 199.265625 32.203125 199.386719 30.117188 L 199.386719 26.390625 C 196 26.390625 193.574219 26.890625 192.097656 27.882812 C 190.621094 28.871094 189.882812 30.441406 189.882812 32.597656 C 189.882812 34.109375 190.195312 35.25 190.824219 36.027344 C 191.453125 36.804688 192.339844 37.1875 193.492188 37.1875 Z M 193.492188 37.1875 " fill-opacity="1" fill-rule="nonzero"/><path fill="#b9975b" d="M 224.363281 15.636719 C 225.753906 15.636719 226.835938 16.039062 227.613281 16.832031 C 228.386719 17.617188 228.777344 18.625 228.777344 19.851562 C 228.777344 20.679688 228.566406 21.3125 228.148438 21.753906 C 227.738281 22.183594 227.195312 22.398438 226.515625 22.398438 C 226.011719 22.398438 225.546875 22.261719 225.132812 21.988281 C 224.722656 21.71875 224.519531 21.292969 224.519531 20.714844 C 224.519531 20.394531 224.589844 19.976562 224.738281 19.472656 C 224.871094 18.96875 224.945312 18.578125 224.945312 18.292969 C 224.945312 18.003906 224.839844 17.738281 224.644531 17.507812 C 224.457031 17.28125 224.140625 17.164062 223.703125 17.164062 C 222.589844 17.164062 221.621094 17.691406 220.796875 18.75 C 219.96875 19.8125 219.320312 21.125 218.847656 22.695312 C 218.386719 24.261719 218.117188 25.757812 218.046875 27.191406 L 218.046875 36.527344 C 218.046875 37.222656 218.273438 37.566406 218.738281 37.566406 L 222.039062 37.457031 L 222.039062 38.855469 L 210.976562 38.855469 L 210.976562 37.457031 L 212.707031 37.566406 C 213.164062 37.566406 213.398438 37.222656 213.398438 36.527344 L 213.398438 18.5625 C 213.398438 17.839844 213.164062 17.476562 212.707031 17.476562 L 210.757812 17.585938 L 210.757812 16.1875 L 218.363281 16.1875 C 218.296875 16.398438 218.226562 16.75 218.15625 17.242188 C 218.082031 17.722656 218.046875 18.199219 218.046875 18.671875 L 218.046875 21.3125 C 218.871094 19.300781 219.796875 17.855469 220.828125 16.972656 C 221.851562 16.085938 223.03125 15.636719 224.363281 15.636719 Z M 224.363281 15.636719 " fill-opacity="1" fill-rule="nonzero"/><path fill="#b9975b" d="M 239.835938 16.1875 L 245.773438 16.1875 L 245.773438 17.539062 L 239.835938 17.539062 L 239.835938 34.109375 C 239.835938 35.472656 239.996094 36.398438 240.320312 36.890625 C 240.644531 37.375 241.21875 37.613281 242.050781 37.613281 C 242.589844 37.613281 243.148438 37.410156 243.714844 37 C 244.289062 36.585938 244.671875 36.070312 244.859375 35.460938 L 245.992188 36.152344 C 245.269531 38.175781 243.359375 39.1875 240.273438 39.1875 C 238.441406 39.1875 237.136719 38.757812 236.363281 37.898438 C 235.585938 37.027344 235.199219 35.617188 235.199219 33.667969 L 235.199219 17.539062 L 231.964844 17.539062 L 231.964844 16.1875 C 233.398438 16.1875 234.492188 16.054688 235.246094 15.777344 C 236 15.507812 236.601562 14.992188 237.054688 14.238281 C 237.5 13.484375 237.925781 12.296875 238.324219 10.671875 L 239.835938 10.671875 Z M 239.835938 16.1875 " fill-opacity="1" fill-rule="nonzero"/></svg>
